<svg width="81.802" xmlns="http://www.w3.org/2000/svg" height="77.876" id="screenshot-6c9dda40-e539-8053-8007-60bcc255094d" viewBox="20 339 81.802 77.876" xmlns:xlink="http://www.w3.org/1999/xlink" fill="none" version="1.1"><g id="shape-6c9dda40-e539-8053-8007-60bcc255094d"><g class="fills" id="fills-6c9dda40-e539-8053-8007-60bcc255094d"><path d="M91.25507354736328,388.60113525390625L84.37858581542969,384.2916259765625C84.21137237548828,384.18646240234375,84.08041381835938,383.93988037109375,84.08795928955078,383.7430419921875L83.89946746826172,377.581787109375C83.8790283203125,377.3857421875,83.99639129638672,377.13714599609375,84.16105651855469,377.0274658203125L90.96013641357422,372.4959411621094C91.12308502197266,372.3865966796875,91.19342803955078,372.1499328613281,91.11427307128906,371.96893310546875L87.8377456665039,364.4759521484375C87.75859069824219,364.29498291015625,87.5367660522461,364.1826477050781,87.34415435791016,364.22589111328125L79.20417022705078,366.04498291015625C79.01156616210938,366.08819580078125,78.74433135986328,366.00347900390625,78.61154174804688,365.85760498046875L74.29619598388672,361.731201171875C74.14424896240234,361.60467529296875,74.0509262084961,361.343505859375,74.08777618408203,361.1505126953125L75.67584991455078,352.97711181640625C75.7136001586914,352.78448486328125,75.59352111816406,352.56707763671875,75.4094009399414,352.4940490722656L67.77349090576172,349.46612548828125C67.58980560302734,349.393310546875,67.35336303710938,349.4693603515625,67.24882507324219,349.635498046875L62.80450439453125,356.67626953125C62.699066162109375,356.8420715332031,62.45256805419922,356.968505859375,62.25475311279297,356.9563293457031L56.28375244140625,357.0038757324219C56.086647033691406,357.0189208984375,55.833980560302734,356.8974609375,55.72377014160156,356.73419189453125L51.04294204711914,349.8311767578125C50.93183898925781,349.66748046875,50.69289016723633,349.59710693359375,50.51163101196289,349.6748352050781L42.99003982543945,352.8859558105469C42.80880355834961,352.9637145996094,42.69648742675781,353.1837158203125,42.74112319946289,353.3753662109375L44.58749771118164,361.33514404296875C44.63133239746094,361.52752685546875,44.54644775390625,361.7889709472656,44.397666931152344,361.91790771484375L40.03756332397461,366.2754821777344C39.908607482910156,366.4241943359375,39.64468002319336,366.51422119140625,39.44997024536133,366.475830078125L31.48925018310547,364.90185546875C31.294361114501953,364.8638916015625,31.07687759399414,364.981689453125,31.004497528076172,365.1641845703125L28.00342559814453,372.7337646484375C27.931045532226562,372.9162902832031,28.00864028930664,373.152587890625,28.176658630371094,373.25701904296875L34.883785247802734,377.4615478515625C35.05180358886719,377.56597900390625,35.17781066894531,377.8132019042969,35.16386032104492,378.00909423828125L35.20459747314453,384.49951171875C35.22026062011719,384.69573974609375,35.0994758605957,384.94500732421875,34.93516540527344,385.0538330078125L28.470073699951172,389.36212158203125C28.306665420532227,389.47125244140625,28.237041473388672,389.708740234375,28.31574058532715,389.88958740234375L31.593189239501953,397.38287353515625C31.672245025634766,397.5628356933594,31.894519805908203,397.67529296875,32.08723449707031,397.6331481933594L39.558815002441406,395.962646484375C39.75124740600586,395.919921875,40.008522033691406,396.0126037597656,40.130558013916016,396.1671142578125L42.18086242675781,398.569580078125C42.31214141845703,398.71795654296875,42.53178787231445,398.7237548828125,42.6690788269043,398.5830078125L53.10175323486328,387.88836669921875C53.239498138427734,387.74774169921875,53.253971099853516,387.5044860839844,53.13471221923828,387.346923828125L52.6415901184082,386.69525146484375C52.550296783447266,386.5751647949219,52.43686294555664,386.3857421875,52.35456466674805,386.2205810546875C50.601585388183594,383.80450439453125,50.07893753051758,380.58660888671875,51.25372314453125,377.6240234375C53.08702850341797,373.00067138671875,58.35411071777344,370.752197265625,63.017333984375,372.601318359375C67.68054962158203,374.4504699707031,69.97492980957031,379.6973571777344,68.1416244506836,384.3206787109375C66.96683502197266,387.28326416015625,64.38140869140625,389.2687072753906,61.4485969543457,389.8266906738281C61.2763671875,389.89093017578125,61.063507080078125,389.9509582519531,60.91516876220703,389.9760437011719L60.10946273803711,390.1126403808594C59.91552734375,390.1460266113281,59.75890350341797,390.33294677734375,59.76240158081055,390.529541015625L60.03019332885742,405.46783447265625C60.033714294433594,405.6644287109375,60.1973762512207,405.8100891113281,60.394927978515625,405.79266357421875L63.534515380859375,405.4481506347656C63.72972869873047,405.4194030761719,63.9803466796875,405.527587890625,64.09100341796875,405.6910705566406L68.38782501220703,412.02813720703125C68.49883270263672,412.19073486328125,68.73822021484375,412.2613220214844,68.91866302490234,412.18426513671875L76.4406967163086,408.9733581542969C76.62239837646484,408.8957824707031,76.73444366455078,408.67510986328125,76.68981170654297,408.48345947265625L74.93367767333984,400.9151611328125C74.88946533203125,400.72369384765625,74.9719009399414,400.4591979980469,75.11779022216797,400.3270263671875L79.5954360961914,395.6282958984375C79.71994018554688,395.47625732421875,79.97979736328125,395.38201904296875,80.17415618896484,395.42132568359375L87.94004821777344,396.9558410644531C88.13350677490234,396.9947509765625,88.35242462158203,396.87603759765625,88.4248046875,396.6934814453125L91.4272232055664,389.12445068359375C91.500244140625,388.941650390625,91.42211151123047,388.7066955566406,91.25507354736328,388.60113525390625" style="fill: rgb(255, 255, 255); fill-opacity: 1;"/></g></g></svg>